<svg width="25" height="24" viewBox="0 0 25 24" fill="none" xmlns="http://www.w3.org/2000/svg">
<rect width="23.0001" height="21" transform="translate(1 2)" fill="#FFFCF3"/>
<rect x="6.50024" y="21.5" width="12" height="1" rx="0.5" fill="#0E5628" stroke="#0E5628"/>
<path d="M19.5 14.0283L18.5 14.3281L18.5 3.5L19.5 3.5L19.5 14.0283Z" fill="#0E5628" stroke="#0E5628"/>
<path d="M6.5 14.3281L5.5 14.0283L5.5 3.5L6.5 3.5L6.5 14.3281Z" fill="#0E5628" stroke="#0E5628"/>
<rect x="5.49976" y="2.5" width="14" height="1" rx="0.5" fill="#0E5628" stroke="#0E5628"/>
<path d="M18 5C18 5 24 5 24 9C24 14 16 16.5 16 16.5V21" stroke="#0E5628" stroke-width="2"/>
<path d="M7.00024 5C7.00024 5 1 5 1 9C1 14 9 16.5 9 16.5V21" stroke="#0E5628" stroke-width="2"/>
<rect x="10" y="23" width="3" height="1" fill="#FFFCF3"/>
<rect x="10" width="3" height="2" fill="#FFFCF3"/>
</svg>
