<svg width="40" height="40" viewBox="0 0 40 40" fill="none" xmlns="http://www.w3.org/2000/svg">
<path d="M0 20C0 8.95431 8.95431 0 20 0C31.0457 0 40 8.95431 40 20C40 31.0457 31.0457 40 20 40C8.95431 40 0 31.0457 0 20Z" fill="#FFFCF3"/>
<path d="M10.4897 14.4261C9.59948 12.8435 11.1089 10.9892 12.8393 11.5398L32.2813 17.7259C34.1129 18.3087 34.1481 20.8878 32.333 21.5203L12.9941 28.2596C11.2542 28.8659 9.68953 26.9964 10.5929 25.3905L13.0735 20.9805C13.4159 20.3717 13.4159 19.6283 13.0735 19.0195L10.4897 14.4261Z" fill="#0E5628"/>
</svg>
